<svg height="511.92533pt" viewBox="0 0 511.92533 511.92533" width="511.92533pt" xmlns="http://www.w3.org/2000/svg"><path d="m426.667969 101.332031v48h-426.667969v-48c0-32.425781 26.238281-58.664062 58.667969-58.664062h309.332031c32.425781 0 58.667969 26.238281 58.667969 58.664062zm0 0" fill="#2196f3"/><path d="m202.667969 373.332031c0-94.101562 76.5625-170.664062 170.664062-170.664062 18.648438 0 36.523438 3.113281 53.335938 8.660156v-61.996094h-426.667969v197.335938c0 32.425781 26.238281 58.664062 58.667969 58.664062h147.113281c-1.984375-10.386719-3.113281-21.054687-3.113281-32zm0 0" fill="#eceff1"/><path d="m106.667969 106.667969c-11.777344 0-21.335938-9.558594-21.335938-21.335938v-64c0-11.773437 9.558594-21.332031 21.335938-21.332031 11.773437 0 21.332031 9.558594 21.332031 21.332031v64c0 11.777344-9.558594 21.335938-21.332031 21.335938zm0 0" fill="#607d8b"/><path d="m320 106.667969c-11.777344 0-21.332031-9.558594-21.332031-21.335938v-64c0-11.773437 9.554687-21.332031 21.332031-21.332031s21.332031 9.558594 21.332031 21.332031v64c0 11.777344-9.554687 21.335938-21.332031 21.335938zm0 0" fill="#607d8b"/><path d="m471.382812 275.285156c-54.058593-54.058594-142.039062-54.058594-196.097656 0s-54.058594 142.039063 0 196.097656c54.058594 54.058594 142.039063 54.058594 196.097656 0 54.058594-54.058593 54.058594-142.039062 0-196.097656zm-71.660156 154.625-26.390625-26.410156-26.386719 26.386719c-8.320312 8.320312-21.847656 8.320312-30.167968 0-8.320313-8.320313-8.320313-21.84375 0-30.164063l26.390625-26.390625-26.390625-26.386719c-8.320313-8.320312-8.320313-21.847656 0-30.167968 8.320312-8.320313 21.847656-8.320313 30.167968 0l26.386719 26.390625 26.390625-26.390625c8.320313-8.320313 21.84375-8.320313 30.164063 0 8.320312 8.320312 8.320312 21.847656 0 30.167968l-26.386719 26.386719 26.386719 26.390625c8.320312 8.320313 8.320312 21.84375 0 30.164063-8.320313 8.34375-21.824219 8.34375-30.164063.023437zm0 0" fill="#f44336"/></svg>